<?xml version="1.0" encoding="utf-8"?>
<!-- Generator: Adobe Illustrator 22.0.1, SVG Export Plug-In . SVG Version: 6.00 Build 0)  -->
<svg version="1.1" id="Calque_1" xmlns="http://www.w3.org/2000/svg" xmlns:xlink="http://www.w3.org/1999/xlink" x="0px" y="0px"
	 viewBox="0 0 402 191" style="enable-background:new 0 0 402 191;" xml:space="preserve">
<style type="text/css">
	.st0{fill:#EB6209;}
	.st1{fill:#2F52A0;}
	.st2{fill:#FFFFFF;}
	.st3{fill:#878787;}
</style>
<g>
	
		<rect x="27.5" y="27.5" transform="matrix(6.123234e-17 -1 1 6.123234e-17 1.052467e-08 191.0017)" class="st0" width="136.1" height="136.1"/>
	<polygon class="st1" points="163.5,27.5 163.5,163.5 27.5,163.5 	"/>
	<g>
		<path class="st2" d="M101,99.3c0,7.3,0,16.5,0,16.5c0,3.1-2.5,5.6-5.6,5.6c-3.1,0-5.6-2.5-5.6-5.6c0-0.2,0-0.5,0-0.7V99.3h-3.8
			v15.9c0,0.2,0,0.4,0,0.6c0,5.1,4.2,9.3,9.3,9.3c5.1,0,9.3-4.2,9.3-9.3c0,0,0-9.2,0-16.5H101z"/>
		<path class="st2" d="M117.2,99.3c0,7.3,0,16.4,0,16.5c0,12-9.8,21.8-21.8,21.8c-11.8,0-21.5-9.5-21.8-21.2l0-0.2v-17h-3.8v17.3
			l0,0.2c0.5,13.6,11.8,24.6,25.6,24.6c14.1,0,25.6-11.5,25.6-25.6c0-0.1,0-9.2,0-16.5H117.2z"/>
		<path class="st2" d="M108.9,99.3c0,7.3,0,16.5,0,16.5c0,7.4-6,13.5-13.5,13.5c-7.4,0-13.5-6-13.5-13.5c0,0,0-0.2,0-0.3V99.3h-4.2
			v16.3l0,0.2l0,0.1c0.1,9.7,8,17.5,17.7,17.5c9.7,0,17.7-7.9,17.7-17.7c0-0.1,0-9.2,0-16.5H108.9z"/>
		<path class="st2" d="M122.2,55.1c0,0-0.1-0.1-0.2-0.3c-0.2-0.2-0.6-0.4-0.8-0.6c-0.2-0.2-0.4-0.5-0.5-0.6
			c-0.1-0.1-0.3-0.5-0.5-0.5c-0.1-0.1-0.3-0.7-0.3-0.8c0-0.1-0.1-0.3-0.2-0.3c-0.1,0-0.4-0.2-0.6-0.4c-0.2-0.2-0.6-0.6-0.6-0.6
			s-0.1-0.7-0.3-1.1c-0.2-0.4-0.3-0.5-0.3-0.7c-0.1-0.1-0.1-0.2-0.2-0.4c0,0-0.2,0-0.5,0.1c0,0-0.5-0.4-1-0.6
			c-0.5-0.3-1-0.6-1.3-0.6c-0.2-0.1-0.5-0.2-0.7-0.3c0,0-0.3,0-0.6,0c-0.2,0-0.9,0.1-1.2,0.1c-0.3,0-1.2,0.2-1.4,0.2
			c-0.4,0-0.5,0.1-1.1,0.2c0,0-0.5,0.1-0.7,0.2c-0.2,0.1-0.7,0.3-1.1,0.3c-0.4,0-0.8,0-1.3,0.1c-0.2,0-1,0.4-1.4,0.5
			c-0.2,0-0.4,0.1-0.4,0.1s0.1,0.3,0.3,0.3c0,0-0.1,0.2-0.4,0.4c-0.3,0.1-0.5,0.2-0.9,0.4c-0.4,0.1-0.9,0.4-1.1,0.5
			c0,0,0.1,0.2,0.3,0.4c0,0,0.1,0-0.3,0.2c-0.3,0.2-1,0.5-1.4,0.6c-0.3,0.1-0.8,0.4-1,0.5c-0.3,0.2-0.3,0.2-0.7,0.4
			c-0.3,0.2-0.1,0.2-0.1,0.2s0.1,0,0.4,0c0.2,0,0.3,0.1,0.3,0.1s0,0.1-0.1,0.2c-0.1,0.1-0.4,0.4-0.9,0.8c-0.3,0.2-0.5,0.4-0.8,0.6
			c-0.3,0.2-0.6,0.5-0.7,0.6l0.3,0.3l0,0.2c-0.1,0.1-0.3,0.2-0.5,0.3c-0.2,0.1-2.3,0.4-4.6,0.3c-3.8-0.1-4.9-0.5-6.8-0.6
			c-2-0.1-3.4,0.3-5.2,0.9c-0.4,0.1-0.6,0.2-0.8,0.3c-0.8,0.2-1.5,0.4-2.2,0.6c-2.5,1-6.8,4.5-8,5.1c-1.2,0.5-1.9,0.5-2.7,0.4
			c-0.8-0.1-1.2-0.3-1.2-0.3s-0.4-0.9-0.9-1.3c-0.7-0.5-2.3-1-2.3-1s-0.3,1.1,0.3,2.1c0.7,1.2,2,1.1,2.5,1.3
			c0.9,0.3,2.9,0.8,4.6,0.1c1.5-0.6,3.1-1.6,4.2-2.3c1.1-0.6,2.9-1.2,4.4-1.3c-0.1,0.3-0.1,0.5-0.2,0.7c-0.4,1.3-2,4-2.3,4.4
			c-0.4,0.5-1.8,2.3-2.1,2.5c-0.2,0.2-0.9,0.5-1.6,0.6c-0.8,0.2-3.3,0.4-3.3,0.4s-0.4,2.2-1,3.5c-0.2,0.5-0.7,1.6-0.7,1.6
			s0.9,0.8,1.2,1.9c0.2,0.3,0.5,0.9,0.7,0.9h3.9c0,0,0.3-0.9-0.5-1.2c-0.4-0.2-0.3-0.3-1.2-0.7c-0.4-0.1-0.6-0.3-0.8-0.8
			c-0.2-0.5-0.2-1.3-0.2-1.3s0.1-0.8,0.5-1c0.5-0.2,1.7,0.2,2.8,0c1.7-0.3,4.2-1.2,5.1-1.6c0.8-0.3,2.1-1.6,2.6-2
			c0.4-0.4,0.9-0.5,0.9-0.5s0.5,0.5,1.5,1.4c1,0.9,1.4,1.3,1.7,1.6c0.3,0.3,0.8,0.9,0.8,1.1c0.3,0.9,0.2,2.4,0.2,2.4s1.6,0.6,2.1,1
			c0.5,0.5,0.9,1.3,0.9,1.3l4.8,0c0.2-0.6-0.2-0.9-0.3-1c-0.2-0.2-0.4-0.6-0.8-0.7c-1.6-0.6-1.6-0.3-2.1-0.7
			c-0.3-0.3-1.1-0.8-1.3-1.1c-0.2-0.3-0.5-1.8-0.5-3.1c0-0.8-0.1-1.5-0.1-2c1.5-0.3,3.8-0.6,5.6,0.2c0.4,0.2,1.3,0.6,2.3,0.9
			c0.1,0.3,0.2,0.6,0.1,1.1c-0.1,1.3-1.4,2.9-1.4,2.9s0.6,1.6,0.8,1.8c0.2,0.2,0.8,0.7,1,1.1c0.1,0.2,0.3,0.6,0.3,0.6h4.1
			c0,0,0.3-0.8-0.3-1.1c-0.2-0.1-0.5-0.4-0.7-0.5c-1-0.5-1.2-0.3-1.6-0.7c-0.2-0.2-0.4-1-0.4-1s1.9-1.9,2.3-2.4
			c0.5-0.6,0.6-0.8,0.8-1.1c1.4-0.1,2.9-0.4,3.5-0.7c0.1-0.1,0.3-0.2,0.4-0.2c0.2,0.1,0.3,0.2,0.4,0.3c0.8,0.5,2.7,1.3,3.4,1.8
			c0.7,0.5,1.6,2.2,1.6,2.2s1.6,0.6,2,1.2c0.3,0.4,1.8,0.8,1.8,0.8s0.5,0,1,0.6c0.6,0.5,0.7,0.7,1.2,0.7c1,0.1,2.7,0.1,2.7,0.1
			s0.5-1-0.3-1.4c-0.8-0.4-0.1-0.7-1.9-1.3c-0.5-0.2-1.4-0.5-1.6-0.7c-0.3-0.2-1.8-2.4-2.6-3.3c-0.8-0.9-2.3-3-2.3-3l-0.3-0.8
			l0.1-0.6c0.1-0.1,0.2-0.2,0.3-0.3c0.3-0.3,0.7-0.7,0.8-1c0.3-0.6,0.2,0,0.4-0.3c0.1-0.2,0.7-0.5,0.9-0.7c0.2-0.1,0.5-0.5,0.5-0.5
			s0,0.2,0.1,0.5c0,0,0.2-0.1,0.4-0.4c0.2-0.3,0.2-0.3,0.5-0.6c0.3-0.3,0.5-0.9,0.7-1.3c0.2-0.4,0.3-0.5,0.4-0.6
			c0,0,0.1,0.3,0.2,0.5c0,0,0.2-0.2,0.3-0.4c0.1-0.2,0.1-0.4,0.3-0.6c0.1-0.2,0.2-0.5,0.4-0.6c0.1-0.1,0.4-0.2,0.7-0.2
			c0.2,0,0.5,0.1,0.7,0.2c0.2,0.1,0.3-0.1,0.5,0.2c0.2,0.2,0.4,0.3,0.4,0.3s0,0,0.2-0.1c0.2-0.1,0.2-0.1,0.4-0.2
			c0.2-0.1,0.2-0.2,0.3-0.3c0.2-0.1,0.2-0.3,0.3-0.5c0.1-0.2,0-0.4,0.1-0.5c0.1-0.1,0.4-0.1,0.5-0.4c0.1-0.3,0.1-0.3,0.1-0.4
			c0,0,0.1-0.2,0.1-0.2s0.3-0.3,0.4-0.5c0-0.2,0.1-0.3,0.2-0.4C122.7,55.7,122.7,55.4,122.2,55.1"/>
		<rect x="69.7" y="91.6" class="st2" width="51.2" height="3.8"/>
		<rect x="69.7" y="83.9" class="st2" width="51.2" height="3.8"/>
		<rect x="69.7" y="76.3" class="st2" width="51.2" height="3.8"/>
	</g>
	<g>
		<g>
			<path class="st1" d="M198,67.1h13.1V73H191V35.2h7V67.1z"/>
			<path class="st1" d="M232.6,64.9h-9.5l-1.9,8.1h-7.1l10.1-37.8h7.3L241.6,73h-7.1L232.6,64.9z M224.5,59h6.6l-3.2-13.4h-0.1
				L224.5,59z"/>
			<path class="st1" d="M245.6,73V35.2h10.6c3.7,0,6.6,0.9,8.7,2.6c2.1,1.7,3.1,4.3,3.1,7.7c0,1.8-0.4,3.4-1.1,4.8s-1.9,2.4-3.4,3.1
				c1.9,0.5,3.3,1.5,4.2,3c0.9,1.6,1.4,3.4,1.4,5.5c0,3.6-1,6.4-2.9,8.2c-2,1.9-4.8,2.8-8.5,2.8H245.6z M252.7,51.1h3.9
				c1.4,0,2.5-0.5,3.3-1.3c0.8-0.8,1.1-2.1,1.1-3.6c0-1.8-0.4-3.1-1.2-3.9c-0.8-0.8-2-1.2-3.6-1.2h-3.6V51.1z M252.7,56.3v10.8h5
				c1.5,0,2.6-0.4,3.3-1.3c0.7-0.9,1.1-2.2,1.1-3.9c0-1.8-0.3-3.2-0.9-4.2c-0.6-1-1.6-1.5-3-1.5H252.7z"/>
			<path class="st1" d="M322.2,48.4h0.1l4.9-13.2h8.1l-8.7,18.8L336,73h-8.5l-5-13.5h-0.1l-5,13.5h-8.2l8.9-19.1l-8.7-18.8h8.1
				L322.2,48.4z"/>
			<path class="st1" d="M198,110.6v13.6h-7V86.4h12.5c3.6,0,6.4,1.1,8.5,3.3c2.1,2.2,3.1,5.2,3.1,8.8c0,3.6-1,6.6-3.1,8.8
				c-2.1,2.2-4.9,3.3-8.5,3.3H198z M198,104.7h5.5c1.5,0,2.6-0.6,3.4-1.7c0.8-1.2,1.2-2.6,1.2-4.4c0-1.8-0.4-3.3-1.2-4.5
				c-0.8-1.2-1.9-1.8-3.4-1.8H198V104.7z"/>
			<path class="st1" d="M227.9,109.2v15h-7V86.4h11.7c3.5,0,6.3,1,8.3,2.9c2,2,3,4.7,3,8.2c0,2-0.4,3.7-1.3,5.1
				c-0.8,1.4-2.1,2.6-3.7,3.4c1.8,0.7,3.2,1.7,4,3.3c0.8,1.5,1.2,3.4,1.2,5.7v2.7c0,1,0.1,2.2,0.3,3.3c0.2,1.2,0.6,2,1.2,2.6v0.5
				h-7.3c-0.6-0.6-0.9-1.5-1.1-2.7c-0.1-1.2-0.2-2.5-0.2-3.8v-2.6c0-1.9-0.4-3.4-1.1-4.4c-0.7-1-1.8-1.6-3.1-1.6H227.9z
				 M227.9,103.3h4.7c1.4,0,2.5-0.5,3.3-1.4c0.7-0.9,1.1-2.2,1.1-3.9c0-1.7-0.4-3.1-1.1-4.1c-0.7-1-1.8-1.5-3.2-1.5h-4.7V103.3z"/>
			<path class="st1" d="M258.1,124.2h-7V86.4h7V124.2z"/>
			<path class="st1" d="M274.2,86.4l6.4,27.8h0.1l6.5-27.8h9.2v37.8h-7v-11l0.6-14.7l-0.1,0l-6.9,25.7h-4.7l-6.8-25.5l-0.1,0
				l0.6,14.5v11h-7V86.4H274.2z"/>
			<path class="st1" d="M322.1,107.6h-12.1v10.7h14.2v5.9H303V86.4h21.2v5.9h-14.1v9.4h12.1V107.6z"/>
			<path class="st1" d="M345.1,114.3c0-1.5-0.4-2.6-1.1-3.5s-2-1.7-3.8-2.5c-3.7-1.4-6.5-2.9-8.4-4.7s-2.8-4.2-2.8-7.3
				c0-3.1,1.1-5.6,3.3-7.6c2.2-1.9,4.9-2.9,8.3-2.9c3.4,0,6.2,1.1,8.3,3.3c2.1,2.2,3.2,4.9,3.1,8.2l0,0.2h-6.8
				c0-1.7-0.4-3.1-1.2-4.2c-0.8-1.1-2-1.6-3.5-1.6c-1.4,0-2.5,0.4-3.3,1.3c-0.8,0.9-1.2,2-1.2,3.4c0,1.2,0.4,2.3,1.3,3.1
				c0.9,0.8,2.4,1.7,4.5,2.7c3.4,1.2,6,2.7,7.7,4.6c1.7,1.9,2.6,4.4,2.6,7.5c0,3.3-1,5.8-3.1,7.7c-2.1,1.9-4.8,2.8-8.3,2.8
				c-3.4,0-6.4-1.1-8.9-3.2c-2.5-2.1-3.7-5.1-3.6-9.1l0-0.2h6.8c0,2.3,0.5,4,1.4,5c0.9,1,2.4,1.5,4.2,1.5c1.5,0,2.6-0.4,3.3-1.2
				S345.1,115.7,345.1,114.3z"/>
		</g>
		<g>
			<path d="M201.5,140.4v10.7c0,1.7-0.5,3-1.4,3.9c-0.9,0.9-2.2,1.4-3.7,1.4c-1.5,0-2.7-0.5-3.7-1.4c-0.9-0.9-1.4-2.2-1.4-3.9v-10.7
				h2.9v10.7c0,1,0.2,1.7,0.6,2.1c0.4,0.5,0.9,0.7,1.6,0.7c0.7,0,1.2-0.2,1.6-0.6c0.4-0.4,0.6-1.2,0.6-2.2v-10.7H201.5z"/>
			<path d="M214.6,156.2h-2.9l-4.6-10.1l-0.1,0v10.1h-2.9v-15.8h2.9l4.6,10.1l0.1,0v-10.1h2.9V156.2z"/>
			<path d="M220.5,156.2h-2.9v-15.8h2.9V156.2z"/>
			<path d="M227.9,152.2l0.1,0.6h0.1l0.1-0.6l2.5-11.8h3.1l-4.2,15.8h-3l-4.2-15.8h3.1L227.9,152.2z"/>
			<path d="M243.5,149.3h-5v4.5h5.9v2.5h-8.8v-15.8h8.8v2.5h-5.9v3.9h5V149.3z"/>
			<path d="M249.4,149.9v6.3h-2.9v-15.8h4.9c1.5,0,2.6,0.4,3.5,1.2c0.8,0.8,1.3,2,1.3,3.4c0,0.8-0.2,1.5-0.5,2.1
				c-0.4,0.6-0.9,1.1-1.5,1.4c0.8,0.3,1.3,0.7,1.7,1.4c0.3,0.6,0.5,1.4,0.5,2.4v1.1c0,0.4,0,0.9,0.1,1.4c0.1,0.5,0.3,0.9,0.5,1.1
				v0.2h-3c-0.2-0.2-0.4-0.6-0.5-1.1c-0.1-0.5-0.1-1.1-0.1-1.6v-1.1c0-0.8-0.2-1.4-0.5-1.8c-0.3-0.4-0.7-0.6-1.3-0.6H249.4z
				 M249.4,147.5h2c0.6,0,1.1-0.2,1.4-0.6c0.3-0.4,0.5-0.9,0.5-1.6c0-0.7-0.2-1.3-0.5-1.7c-0.3-0.4-0.8-0.6-1.3-0.6h-2V147.5z"/>
			<path d="M265.6,152.1c0-0.6-0.2-1.1-0.5-1.5c-0.3-0.4-0.8-0.7-1.6-1.1c-1.6-0.6-2.7-1.2-3.5-1.9c-0.8-0.7-1.2-1.7-1.2-3
				c0-1.3,0.5-2.3,1.4-3.2c0.9-0.8,2.1-1.2,3.5-1.2c1.4,0,2.6,0.5,3.5,1.4c0.9,0.9,1.3,2,1.3,3.4l0,0.1h-2.8c0-0.7-0.2-1.3-0.5-1.8
				c-0.3-0.4-0.8-0.7-1.5-0.7c-0.6,0-1,0.2-1.4,0.6c-0.3,0.4-0.5,0.8-0.5,1.4c0,0.5,0.2,0.9,0.5,1.3c0.4,0.3,1,0.7,1.9,1.1
				c1.4,0.5,2.5,1.1,3.2,1.9c0.7,0.8,1.1,1.8,1.1,3.1c0,1.4-0.4,2.4-1.3,3.2c-0.9,0.8-2,1.2-3.4,1.2c-1.4,0-2.7-0.4-3.7-1.3
				c-1-0.9-1.6-2.1-1.5-3.8l0-0.1h2.8c0,1,0.2,1.7,0.6,2.1c0.4,0.4,1,0.6,1.8,0.6c0.6,0,1.1-0.2,1.4-0.5
				C265.4,153.2,265.6,152.7,265.6,152.1z"/>
			<path d="M273.9,156.2H271v-15.8h2.9V156.2z"/>
			<path d="M285.4,142.9H282v13.3h-2.9v-13.3h-3.4v-2.5h9.7V142.9z"/>
			<path d="M295.3,149.3h-5v4.5h5.9v2.5h-8.8v-15.8h8.8v2.5h-5.9v3.9h5V149.3z M291.8,136.4h3.1l0,0.1l-2.6,2.8l-2.4,0L291.8,136.4z
				"/>
			<path d="M303.4,156.2v-15.8h4.5c1.5,0,2.8,0.6,3.8,1.8c1,1.2,1.5,2.8,1.5,4.7v2.7c0,1.9-0.5,3.5-1.5,4.7c-1,1.2-2.3,1.8-3.8,1.8
				H303.4z M306.3,142.9v10.9h1.4c0.8,0,1.4-0.4,1.9-1.1c0.4-0.7,0.7-1.7,0.7-3V147c0-1.2-0.2-2.2-0.7-3c-0.4-0.7-1.1-1.1-1.9-1.1
				H306.3z"/>
			<path d="M323.7,149.3h-5v4.5h5.9v2.5h-8.8v-15.8h8.8v2.5h-5.9v3.9h5V149.3z"/>
			<path d="M334.7,153.8h5.5v2.5h-8.4v-15.8h2.9V153.8z"/>
			<path d="M344.3,147.2L344.3,147.2l2.6-6.8h3.2l-4.3,10.2v5.6h-2.9v-5.8l-4.2-10h3.2L344.3,147.2z"/>
			<path d="M361.6,150.6c0,1.8-0.5,3.3-1.4,4.3c-1,1-2.2,1.6-3.8,1.6s-2.8-0.5-3.8-1.6c-0.9-1-1.4-2.5-1.4-4.3v-4.4
				c0-1.8,0.5-3.3,1.4-4.3c0.9-1.1,2.2-1.6,3.8-1.6c1.6,0,2.8,0.5,3.8,1.6c1,1.1,1.4,2.5,1.4,4.3V150.6z M358.7,146.1
				c0-1.1-0.2-2-0.6-2.6c-0.4-0.6-1-0.9-1.7-0.9c-0.8,0-1.3,0.3-1.7,0.9c-0.4,0.6-0.6,1.4-0.6,2.6v4.5c0,1.1,0.2,2,0.6,2.6
				c0.4,0.6,1,0.9,1.7,0.9c0.8,0,1.3-0.3,1.7-0.9c0.4-0.6,0.6-1.4,0.6-2.6V146.1z"/>
			<path d="M374.5,156.2h-2.9l-4.6-10.1l-0.1,0v10.1h-2.9v-15.8h2.9l4.6,10.1l0.1,0v-10.1h2.9V156.2z"/>
		</g>
		<rect x="275.5" y="35.2" class="st1" width="28.5" height="5.7"/>
		<rect x="275.5" y="51.2" class="st1" width="28.5" height="5.7"/>
		<rect x="275.5" y="67.2" class="st1" width="28.5" height="5.7"/>
	</g>
</g>
<rect x="28" y="375.6" class="st1" width="45.4" height="45.4"/>
<rect x="28" y="307.1" class="st0" width="45.4" height="45.4"/>
<g>
	<path class="st3" d="M87.5,317.4L87.5,317.4c0,1-0.2,1.7-0.7,2.2s-1.1,0.7-2,0.7s-1.6-0.3-2.1-0.8s-0.8-1.3-0.8-2.3v-2.5
		c0-1,0.3-1.8,0.8-2.3s1.2-0.8,2-0.8c0.9,0,1.6,0.2,2.1,0.7s0.7,1.2,0.7,2.2l0,0h-1.6c0-0.6-0.1-1-0.2-1.2s-0.5-0.4-0.9-0.4
		c-0.4,0-0.7,0.1-0.9,0.4c-0.2,0.3-0.3,0.7-0.3,1.3v2.6c0,0.6,0.1,1,0.3,1.3c0.2,0.3,0.5,0.4,0.9,0.4c0.4,0,0.7-0.1,0.8-0.3
		s0.2-0.6,0.2-1.2H87.5z"/>
	<path class="st3" d="M92.5,315.3h-1.6v-1.5h1.6V315.3z M92.5,320.1h-1.6v-1.5h1.6V320.1z"/>
	<path class="st3" d="M101.4,316.8c0,1.1-0.2,2-0.7,2.6s-1.1,0.9-1.8,0.9c-0.8,0-1.4-0.3-1.8-0.9s-0.7-1.5-0.7-2.6v-1.8
		c0-1.1,0.2-2,0.7-2.6s1.1-0.9,1.8-0.9s1.4,0.3,1.8,0.9s0.7,1.5,0.7,2.6V316.8z M99.7,314.8c0-0.7-0.1-1.2-0.2-1.5s-0.3-0.5-0.6-0.4
		h0c-0.3,0-0.5,0.1-0.6,0.4s-0.2,0.8-0.2,1.5v2.1c0,0.7,0.1,1.2,0.2,1.5s0.3,0.5,0.6,0.4h0c0.3,0,0.5-0.1,0.6-0.4s0.2-0.8,0.2-1.5
		V314.8z"/>
	<path class="st3" d="M109.9,311.6l1.5,6.3h0l1.5-6.3h2.2v8.5h-1.7v-2.5l0.1-3.3l0,0l-1.6,5.8h-1.1l-1.6-5.8l0,0l0.1,3.3v2.5h-1.7
		v-8.5H109.9z"/>
	<path class="st3" d="M119.9,315.3h-1.6v-1.5h1.6V315.3z M119.9,320.1h-1.6v-1.5h1.6V320.1z"/>
	<path class="st3" d="M128.8,312.9c-0.8,1-1.3,1.9-1.5,2.9s-0.4,2.1-0.5,3.5l-0.1,0.8H125l0.1-0.8c0.1-1.3,0.3-2.4,0.7-3.5
		c0.3-1.1,0.8-2,1.5-2.9h-3.6v-1.3h5.2V312.9z"/>
	<path class="st3" d="M134.8,320.1h-5V319l2.3-2.9c0.3-0.4,0.5-0.8,0.7-1.1s0.2-0.6,0.2-0.9c0-0.4-0.1-0.7-0.2-0.9
		c-0.1-0.2-0.3-0.3-0.6-0.3c-0.3,0-0.5,0.1-0.6,0.4s-0.2,0.6-0.2,1.1h-1.6l0,0c0-0.8,0.2-1.4,0.7-2s1.1-0.8,1.8-0.8
		c0.8,0,1.4,0.2,1.8,0.7s0.7,1.1,0.7,1.9c0,0.5-0.1,1-0.4,1.5s-0.7,1-1.2,1.7l-1.1,1.6h2.9V320.1z"/>
	<path class="st3" d="M144.1,311.6h1.7v5.9c0,0.8-0.2,1.5-0.7,2s-1.1,0.7-1.8,0.7c-0.8,0-1.4-0.2-1.8-0.7s-0.7-1.1-0.7-1.9l0,0h1.6
		c0,0.4,0.1,0.8,0.2,1s0.4,0.3,0.6,0.3c0.2,0,0.4-0.1,0.6-0.4s0.2-0.6,0.2-1V311.6z"/>
	<path class="st3" d="M151.1,315.3h-1.6v-1.5h1.6V315.3z M151.1,320.1h-1.6v-1.5h1.6V320.1z"/>
	<path class="st3" d="M158.5,320.1h-1.7v-6.8l-1.6,0v-1.2l3.2-0.6V320.1z"/>
	<path class="st3" d="M165.9,316.8c0,1.1-0.2,2-0.7,2.6s-1.1,0.9-1.8,0.9c-0.8,0-1.4-0.3-1.8-0.9s-0.7-1.5-0.7-2.6v-1.8
		c0-1.1,0.2-2,0.7-2.6s1.1-0.9,1.8-0.9s1.4,0.3,1.8,0.9s0.7,1.5,0.7,2.6V316.8z M164.3,314.8c0-0.7-0.1-1.2-0.2-1.5
		s-0.3-0.5-0.6-0.4h0c-0.3,0-0.5,0.1-0.6,0.4s-0.2,0.8-0.2,1.5v2.1c0,0.7,0.1,1.2,0.2,1.5s0.3,0.5,0.6,0.4h0c0.3,0,0.5-0.1,0.6-0.4
		s0.2-0.8,0.2-1.5V314.8z"/>
	<path class="st3" d="M171.9,316.8c0,1.1-0.2,2-0.7,2.6s-1.1,0.9-1.8,0.9c-0.8,0-1.4-0.3-1.8-0.9s-0.7-1.5-0.7-2.6v-1.8
		c0-1.1,0.2-2,0.7-2.6s1.1-0.9,1.8-0.9s1.4,0.3,1.8,0.9s0.7,1.5,0.7,2.6V316.8z M170.2,314.8c0-0.7-0.1-1.2-0.2-1.5
		s-0.3-0.5-0.6-0.4h0c-0.3,0-0.5,0.1-0.6,0.4s-0.2,0.8-0.2,1.5v2.1c0,0.7,0.1,1.2,0.2,1.5s0.3,0.5,0.6,0.4h0c0.3,0,0.5-0.1,0.6-0.4
		s0.2-0.8,0.2-1.5V314.8z"/>
	<path class="st3" d="M184.2,320.1h-1.7l-2.6-5.5l0,0v5.4h-1.7v-8.5h1.7l2.6,5.4l0,0v-5.4h1.7V320.1z"/>
	<path class="st3" d="M189.5,315.3h-1.6v-1.5h1.6V315.3z M189.5,320.1h-1.6v-1.5h1.6V320.1z"/>
	<path class="st3" d="M198.4,316.8c0,1.1-0.2,2-0.7,2.6s-1.1,0.9-1.8,0.9c-0.8,0-1.4-0.3-1.8-0.9s-0.7-1.5-0.7-2.6v-1.8
		c0-1.1,0.2-2,0.7-2.6s1.1-0.9,1.8-0.9s1.4,0.3,1.8,0.9s0.7,1.5,0.7,2.6V316.8z M196.7,314.8c0-0.7-0.1-1.2-0.2-1.5
		s-0.3-0.5-0.6-0.4h0c-0.3,0-0.5,0.1-0.6,0.4s-0.2,0.8-0.2,1.5v2.1c0,0.7,0.1,1.2,0.2,1.5s0.3,0.5,0.6,0.4h0c0.3,0,0.5-0.1,0.6-0.4
		s0.2-0.8,0.2-1.5V314.8z"/>
	<path class="st3" d="M83.8,331.1v3.4h-1.7V326h2.8c0.8,0,1.5,0.2,2,0.7s0.7,1.1,0.7,1.8c0,0.4-0.1,0.8-0.3,1.2s-0.5,0.6-0.9,0.8
		c0.4,0.1,0.8,0.4,0.9,0.7s0.3,0.8,0.3,1.3v0.6c0,0.2,0,0.5,0.1,0.8s0.2,0.5,0.3,0.6v0.1h-1.7c-0.1-0.1-0.2-0.3-0.3-0.6
		S86,333.3,86,333v-0.6c0-0.4-0.1-0.8-0.3-1s-0.4-0.4-0.7-0.4H83.8z M83.8,329.8h1.1c0.3,0,0.6-0.1,0.8-0.3s0.3-0.5,0.3-0.9
		c0-0.4-0.1-0.7-0.3-0.9s-0.4-0.3-0.8-0.3h-1.1V329.8z"/>
	<path class="st3" d="M93,329.7h-1.6v-1.5H93V329.7z M93,334.5h-1.6V333H93V334.5z"/>
	<path class="st3" d="M101.9,334.5h-5v-1.1l2.3-2.9c0.3-0.4,0.5-0.8,0.7-1.1s0.2-0.6,0.2-0.9c0-0.4-0.1-0.7-0.2-0.9
		c-0.1-0.2-0.3-0.3-0.6-0.3c-0.3,0-0.5,0.1-0.6,0.4s-0.2,0.6-0.2,1.1h-1.6l0,0c0-0.8,0.2-1.4,0.7-2s1.1-0.8,1.8-0.8
		c0.8,0,1.4,0.2,1.8,0.7s0.7,1.1,0.7,1.9c0,0.5-0.1,1-0.4,1.5s-0.7,1-1.2,1.7l-1.1,1.6h2.9V334.5z"/>
	<path class="st3" d="M103,330.7l0.4-4.8h4.2v1.4h-2.8l-0.2,2c0.1-0.1,0.3-0.2,0.5-0.3s0.4-0.1,0.6-0.1c0.7,0,1.3,0.2,1.6,0.7
		s0.6,1.2,0.6,2.1c0,0.8-0.2,1.5-0.6,2s-1,0.8-1.8,0.8c-0.7,0-1.3-0.2-1.8-0.7c-0.5-0.4-0.7-1-0.7-1.8l0,0l1.6-0.1
		c0,0.4,0.1,0.7,0.2,0.9s0.4,0.3,0.6,0.3c0.3,0,0.5-0.1,0.6-0.4s0.2-0.6,0.2-1.1c0-0.5-0.1-0.9-0.2-1.2s-0.4-0.4-0.7-0.4
		c-0.2,0-0.4,0.1-0.5,0.2s-0.2,0.3-0.3,0.5L103,330.7z"/>
	<path class="st3" d="M108.9,330.7l0.4-4.8h4.2v1.4h-2.8l-0.2,2c0.1-0.1,0.3-0.2,0.5-0.3s0.4-0.1,0.6-0.1c0.7,0,1.3,0.2,1.6,0.7
		s0.6,1.2,0.6,2.1c0,0.8-0.2,1.5-0.6,2s-1,0.8-1.8,0.8c-0.7,0-1.3-0.2-1.8-0.7s-0.7-1-0.7-1.8l0,0l1.6-0.1c0,0.4,0.1,0.7,0.2,0.9
		s0.4,0.3,0.6,0.3c0.3,0,0.5-0.1,0.6-0.4s0.2-0.6,0.2-1.1c0-0.5-0.1-0.9-0.2-1.2s-0.4-0.4-0.7-0.4c-0.2,0-0.4,0.1-0.5,0.2
		s-0.2,0.3-0.3,0.5L108.9,330.7z"/>
	<path class="st3" d="M122.8,332.3l0.1,0.3h0l0.1-0.3l1.4-6.4h1.8l-2.4,8.5H122l-2.4-8.5h1.8L122.8,332.3z"/>
	<path class="st3" d="M130.8,329.7h-1.6v-1.5h1.6V329.7z M130.8,334.5h-1.6V333h1.6V334.5z"/>
	<path class="st3" d="M136.8,333.3c0.3,0,0.6-0.2,0.8-0.5s0.3-0.8,0.3-1.3v-0.3c-0.2,0.2-0.3,0.4-0.5,0.5s-0.4,0.2-0.7,0.2
		c-0.7,0-1.2-0.3-1.6-0.8s-0.6-1.2-0.6-2.1c0-0.9,0.2-1.6,0.7-2.2s1.1-0.9,1.8-0.9c0.7,0,1.4,0.3,1.8,0.9s0.7,1.4,0.7,2.5v2.1
		c0,1-0.3,1.8-0.8,2.4s-1.2,0.9-2,0.9c-0.2,0-0.5,0-0.8-0.1s-0.5-0.2-0.8-0.3l0.2-1.2c0.2,0.1,0.4,0.2,0.6,0.2
		S136.6,333.3,136.8,333.3z M137.1,330.6c0.2,0,0.4,0,0.5-0.1s0.3-0.2,0.4-0.4v-1c0-0.6-0.1-1.1-0.2-1.4s-0.4-0.5-0.6-0.5h0
		c-0.2,0-0.4,0.1-0.6,0.5s-0.2,0.7-0.2,1.2c0,0.5,0.1,0.9,0.2,1.2S136.8,330.6,137.1,330.6z"/>
	<path class="st3" d="M142.8,333.3c0.3,0,0.6-0.2,0.8-0.5s0.3-0.8,0.3-1.3v-0.3c-0.2,0.2-0.3,0.4-0.5,0.5s-0.4,0.2-0.7,0.2
		c-0.7,0-1.2-0.3-1.6-0.8s-0.6-1.2-0.6-2.1c0-0.9,0.2-1.6,0.7-2.2s1.1-0.9,1.8-0.9c0.7,0,1.4,0.3,1.8,0.9s0.7,1.4,0.7,2.5v2.1
		c0,1-0.3,1.8-0.8,2.4s-1.2,0.9-2,0.9c-0.2,0-0.5,0-0.8-0.1s-0.5-0.2-0.8-0.3l0.2-1.2c0.2,0.1,0.4,0.2,0.6,0.2
		S142.5,333.3,142.8,333.3z M143.1,330.6c0.2,0,0.4,0,0.5-0.1s0.3-0.2,0.4-0.4v-1c0-0.6-0.1-1.1-0.2-1.4s-0.4-0.5-0.6-0.5h0
		c-0.2,0-0.4,0.1-0.6,0.5s-0.2,0.7-0.2,1.2c0,0.5,0.1,0.9,0.2,1.2S142.8,330.6,143.1,330.6z"/>
	<path class="st3" d="M152,334.5V326h2.5c0.9,0,1.6,0.2,2.1,0.6s0.7,1,0.7,1.7c0,0.4-0.1,0.8-0.3,1.1s-0.4,0.5-0.8,0.7
		c0.4,0.1,0.8,0.3,1,0.7s0.3,0.8,0.3,1.2c0,0.8-0.2,1.4-0.7,1.9s-1.1,0.6-2,0.6H152z M153.7,329.6h0.9c0.3,0,0.6-0.1,0.8-0.3
		c0.2-0.2,0.3-0.5,0.3-0.8c0-0.4-0.1-0.7-0.3-0.9c-0.2-0.2-0.5-0.3-0.8-0.3h-0.8V329.6z M153.7,330.7v2.4h1.2c0.4,0,0.6-0.1,0.8-0.3
		s0.3-0.5,0.3-0.9c0-0.4-0.1-0.7-0.2-0.9s-0.4-0.3-0.7-0.3H153.7z"/>
	<path class="st3" d="M162.7,329.7h-1.6v-1.5h1.6V329.7z M162.7,334.5h-1.6V333h1.6V334.5z"/>
	<path class="st3" d="M171.6,334.5h-5v-1.1l2.3-2.9c0.3-0.4,0.5-0.8,0.7-1.1s0.2-0.6,0.2-0.9c0-0.4-0.1-0.7-0.2-0.9
		c-0.1-0.2-0.3-0.3-0.6-0.3c-0.3,0-0.5,0.1-0.6,0.4s-0.2,0.6-0.2,1.1h-1.6l0,0c0-0.8,0.2-1.4,0.7-2s1.1-0.8,1.8-0.8
		c0.8,0,1.4,0.2,1.8,0.7s0.7,1.1,0.7,1.9c0,0.5-0.1,1-0.4,1.5s-0.7,1-1.2,1.7l-1.1,1.6h2.9V334.5z"/>
	<path class="st3" d="M172.7,330.7l0.4-4.8h4.2v1.4h-2.8l-0.2,2c0.1-0.1,0.3-0.2,0.5-0.3s0.4-0.1,0.6-0.1c0.7,0,1.3,0.2,1.6,0.7
		s0.6,1.2,0.6,2.1c0,0.8-0.2,1.5-0.6,2s-1,0.8-1.8,0.8c-0.7,0-1.3-0.2-1.8-0.7s-0.7-1-0.7-1.8l0,0l1.6-0.1c0,0.4,0.1,0.7,0.2,0.9
		s0.4,0.3,0.6,0.3c0.3,0,0.5-0.1,0.6-0.4s0.2-0.6,0.2-1.1c0-0.5-0.1-0.9-0.2-1.2s-0.4-0.4-0.7-0.4c-0.2,0-0.4,0.1-0.5,0.2
		s-0.2,0.3-0.3,0.5L172.7,330.7z"/>
</g>
<g>
	<path class="st3" d="M87.5,386.2L87.5,386.2c0,1-0.2,1.7-0.7,2.2s-1.1,0.7-2,0.7s-1.6-0.3-2.1-0.8s-0.8-1.3-0.8-2.3v-2.5
		c0-1,0.3-1.8,0.8-2.3s1.2-0.8,2-0.8c0.9,0,1.6,0.2,2.1,0.7s0.7,1.2,0.7,2.2l0,0h-1.6c0-0.6-0.1-1-0.2-1.2s-0.5-0.4-0.9-0.4
		c-0.4,0-0.7,0.1-0.9,0.4c-0.2,0.3-0.3,0.7-0.3,1.3v2.6c0,0.6,0.1,1,0.3,1.3c0.2,0.3,0.5,0.4,0.9,0.4c0.4,0,0.7-0.1,0.8-0.3
		s0.2-0.6,0.2-1.2H87.5z"/>
	<path class="st3" d="M92.5,384.1h-1.6v-1.5h1.6V384.1z M92.5,388.9h-1.6v-1.5h1.6V388.9z"/>
	<path class="st3" d="M98.6,387.7c0.3,0,0.6-0.2,0.8-0.5c0.2-0.3,0.3-0.8,0.3-1.3v-0.3c-0.2,0.2-0.3,0.4-0.5,0.5s-0.4,0.2-0.7,0.2
		c-0.7,0-1.2-0.3-1.6-0.8s-0.6-1.2-0.6-2.1c0-0.9,0.2-1.6,0.7-2.2s1.1-0.9,1.8-0.9c0.7,0,1.4,0.3,1.8,0.9s0.7,1.4,0.7,2.5v2.1
		c0,1-0.3,1.8-0.8,2.4s-1.2,0.9-2,0.9c-0.2,0-0.5,0-0.8-0.1s-0.5-0.2-0.8-0.3l0.2-1.2c0.2,0.1,0.4,0.2,0.6,0.2
		S98.3,387.7,98.6,387.7z M98.8,385c0.2,0,0.4,0,0.5-0.1s0.3-0.2,0.4-0.4v-1c0-0.6-0.1-1.1-0.2-1.4s-0.4-0.5-0.6-0.5h0
		c-0.2,0-0.4,0.1-0.6,0.5s-0.2,0.7-0.2,1.2c0,0.5,0.1,0.9,0.2,1.2S98.6,385,98.8,385z"/>
	<path class="st3" d="M107.4,385.6c0,1.1-0.2,2-0.7,2.6s-1.1,0.9-1.8,0.9c-0.8,0-1.4-0.3-1.8-0.9s-0.7-1.5-0.7-2.6v-1.8
		c0-1.1,0.2-2,0.7-2.6s1.1-0.9,1.8-0.9s1.4,0.3,1.8,0.9s0.7,1.5,0.7,2.6V385.6z M105.7,383.6c0-0.7-0.1-1.2-0.2-1.5
		s-0.3-0.5-0.6-0.4h0c-0.3,0-0.5,0.1-0.6,0.4s-0.2,0.8-0.2,1.5v2.1c0,0.7,0.1,1.2,0.2,1.5s0.3,0.5,0.6,0.4h0c0.3,0,0.5-0.1,0.6-0.4
		s0.2-0.8,0.2-1.5V383.6z"/>
	<path class="st3" d="M115.9,380.4l1.5,6.3h0l1.5-6.3h2.2v8.5h-1.7v-2.5l0.1-3.3l0,0l-1.6,5.8h-1.1l-1.6-5.8l0,0l0.1,3.3v2.5h-1.7
		v-8.5H115.9z"/>
	<path class="st3" d="M125.8,384.1h-1.6v-1.5h1.6V384.1z M125.8,388.9h-1.6v-1.5h1.6V388.9z"/>
	<path class="st3" d="M134.8,381.7c-0.8,1-1.3,1.9-1.5,2.9s-0.4,2.1-0.5,3.5l-0.1,0.8h-1.7l0.1-0.8c0.1-1.3,0.3-2.4,0.7-3.5
		c0.3-1.1,0.8-2,1.5-2.9h-3.6v-1.3h5.2V381.7z"/>
	<path class="st3" d="M140.7,385.6c0,1.1-0.2,2-0.7,2.6s-1.1,0.9-1.8,0.9c-0.8,0-1.4-0.3-1.8-0.9s-0.7-1.5-0.7-2.6v-1.8
		c0-1.1,0.2-2,0.7-2.6s1.1-0.9,1.8-0.9s1.4,0.3,1.8,0.9s0.7,1.5,0.7,2.6V385.6z M139,383.6c0-0.7-0.1-1.2-0.2-1.5s-0.3-0.5-0.6-0.4
		h0c-0.3,0-0.5,0.1-0.6,0.4s-0.2,0.8-0.2,1.5v2.1c0,0.7,0.1,1.2,0.2,1.5s0.3,0.5,0.6,0.4h0c0.3,0,0.5-0.1,0.6-0.4s0.2-0.8,0.2-1.5
		V383.6z"/>
	<path class="st3" d="M150.1,380.4h1.7v5.9c0,0.8-0.2,1.5-0.7,2s-1.1,0.7-1.8,0.7c-0.8,0-1.4-0.2-1.8-0.7s-0.7-1.1-0.7-1.9l0,0h1.6
		c0,0.4,0.1,0.8,0.2,1s0.4,0.3,0.6,0.3c0.2,0,0.4-0.1,0.6-0.4s0.2-0.6,0.2-1V380.4z"/>
	<path class="st3" d="M157,384.1h-1.6v-1.5h1.6V384.1z M157,388.9h-1.6v-1.5h1.6V388.9z"/>
	<path class="st3" d="M165.9,385.6c0,1.1-0.2,2-0.7,2.6s-1.1,0.9-1.8,0.9c-0.8,0-1.4-0.3-1.8-0.9s-0.7-1.5-0.7-2.6v-1.8
		c0-1.1,0.2-2,0.7-2.6s1.1-0.9,1.8-0.9s1.4,0.3,1.8,0.9s0.7,1.5,0.7,2.6V385.6z M164.2,383.6c0-0.7-0.1-1.2-0.2-1.5
		s-0.3-0.5-0.6-0.4h0c-0.3,0-0.5,0.1-0.6,0.4s-0.2,0.8-0.2,1.5v2.1c0,0.7,0.1,1.2,0.2,1.5s0.3,0.5,0.6,0.4h0c0.3,0,0.5-0.1,0.6-0.4
		s0.2-0.8,0.2-1.5V383.6z"/>
	<path class="st3" d="M178.2,388.9h-1.7l-2.6-5.5l0,0v5.4h-1.7v-8.5h1.7l2.6,5.4l0,0v-5.4h1.7V388.9z"/>
	<path class="st3" d="M183.5,384.1h-1.6v-1.5h1.6V384.1z M183.5,388.9h-1.6v-1.5h1.6V388.9z"/>
	<path class="st3" d="M192.4,385.6c0,1.1-0.2,2-0.7,2.6s-1.1,0.9-1.8,0.9c-0.8,0-1.4-0.3-1.8-0.9s-0.7-1.5-0.7-2.6v-1.8
		c0-1.1,0.2-2,0.7-2.6s1.1-0.9,1.8-0.9s1.4,0.3,1.8,0.9s0.7,1.5,0.7,2.6V385.6z M190.8,383.6c0-0.7-0.1-1.2-0.2-1.5
		s-0.3-0.5-0.6-0.4h0c-0.3,0-0.5,0.1-0.6,0.4s-0.2,0.8-0.2,1.5v2.1c0,0.7,0.1,1.2,0.2,1.5s0.3,0.5,0.6,0.4h0c0.3,0,0.5-0.1,0.6-0.4
		s0.2-0.8,0.2-1.5V383.6z"/>
	<path class="st3" d="M83.8,399.9v3.4h-1.7v-8.5h2.8c0.8,0,1.5,0.2,2,0.7s0.7,1.1,0.7,1.8c0,0.4-0.1,0.8-0.3,1.2s-0.5,0.6-0.9,0.8
		c0.4,0.1,0.8,0.4,0.9,0.7s0.3,0.8,0.3,1.3v0.6c0,0.2,0,0.5,0.1,0.8s0.2,0.5,0.3,0.6v0.1h-1.7c-0.1-0.1-0.2-0.3-0.3-0.6
		s-0.1-0.6-0.1-0.9v-0.6c0-0.4-0.1-0.8-0.3-1s-0.4-0.4-0.7-0.4H83.8z M83.8,398.6h1.1c0.3,0,0.6-0.1,0.8-0.3s0.3-0.5,0.3-0.9
		c0-0.4-0.1-0.7-0.3-0.9s-0.4-0.3-0.8-0.3h-1.1V398.6z"/>
	<path class="st3" d="M93,398.5h-1.6V397H93V398.5z M93,403.3h-1.6v-1.5H93V403.3z"/>
	<path class="st3" d="M100.4,403.3h-1.7v-6.8l-1.6,0v-1.2l3.2-0.6V403.3z"/>
	<path class="st3" d="M103,399.6l0.4-4.8h4.2v1.4h-2.8l-0.2,2c0.1-0.1,0.3-0.2,0.5-0.3s0.4-0.1,0.6-0.1c0.7,0,1.3,0.2,1.6,0.7
		s0.6,1.2,0.6,2.1c0,0.8-0.2,1.5-0.6,2s-1,0.8-1.8,0.8c-0.7,0-1.3-0.2-1.8-0.7c-0.5-0.4-0.7-1-0.7-1.8l0,0l1.6-0.1
		c0,0.4,0.1,0.7,0.2,0.9s0.4,0.3,0.6,0.3c0.3,0,0.5-0.1,0.6-0.4s0.2-0.6,0.2-1.1c0-0.5-0.1-0.9-0.2-1.2s-0.4-0.4-0.7-0.4
		c-0.2,0-0.4,0.1-0.5,0.2s-0.2,0.3-0.3,0.5L103,399.6z"/>
	<path class="st3" d="M116.8,401.2l0.1,0.3h0l0.1-0.3l1.4-6.4h1.8l-2.4,8.5H116l-2.4-8.5h1.8L116.8,401.2z"/>
	<path class="st3" d="M124.8,398.5h-1.6V397h1.6V398.5z M124.8,403.3h-1.6v-1.5h1.6V403.3z"/>
	<path class="st3" d="M133.7,396.1c-0.8,1-1.3,1.9-1.5,2.9s-0.4,2.1-0.5,3.5l-0.1,0.8h-1.7l0.1-0.8c0.1-1.3,0.3-2.4,0.7-3.5
		c0.3-1.1,0.8-2,1.5-2.9h-3.6v-1.3h5.2V396.1z"/>
	<path class="st3" d="M139.7,396.1c-0.8,1-1.3,1.9-1.5,2.9s-0.4,2.1-0.5,3.5l-0.1,0.8h-1.7l0.1-0.8c0.1-1.3,0.3-2.4,0.7-3.5
		c0.3-1.1,0.8-2,1.5-2.9h-3.6v-1.3h5.2V396.1z"/>
	<path class="st3" d="M146.1,403.3v-8.5h2.5c0.9,0,1.6,0.2,2.1,0.6s0.7,1,0.7,1.7c0,0.4-0.1,0.8-0.3,1.1s-0.4,0.5-0.8,0.7
		c0.4,0.1,0.8,0.3,1,0.7s0.3,0.8,0.3,1.2c0,0.8-0.2,1.4-0.7,1.9s-1.1,0.6-2,0.6H146.1z M147.7,398.4h0.9c0.3,0,0.6-0.1,0.8-0.3
		c0.2-0.2,0.3-0.5,0.3-0.8c0-0.4-0.1-0.7-0.3-0.9c-0.2-0.2-0.5-0.3-0.8-0.3h-0.8V398.4z M147.7,399.6v2.4h1.2c0.4,0,0.6-0.1,0.8-0.3
		s0.3-0.5,0.3-0.9c0-0.4-0.1-0.7-0.2-0.9s-0.4-0.3-0.7-0.3H147.7z"/>
	<path class="st3" d="M156.7,398.5h-1.6V397h1.6V398.5z M156.7,403.3h-1.6v-1.5h1.6V403.3z"/>
	<path class="st3" d="M164.1,403.3h-1.7v-6.8l-1.6,0v-1.2l3.2-0.6V403.3z"/>
	<path class="st3" d="M171.4,397.1c0,0.4-0.1,0.8-0.3,1.1s-0.5,0.6-0.8,0.8c0.4,0.2,0.7,0.5,0.9,0.8s0.3,0.8,0.3,1.2
		c0,0.8-0.2,1.4-0.7,1.8s-1.1,0.6-1.8,0.6s-1.3-0.2-1.8-0.6s-0.7-1-0.7-1.8c0-0.5,0.1-0.9,0.3-1.2s0.5-0.6,0.9-0.8
		c-0.3-0.2-0.6-0.4-0.8-0.8s-0.3-0.7-0.3-1.1c0-0.8,0.2-1.3,0.6-1.8s1-0.6,1.7-0.6s1.3,0.2,1.7,0.6S171.4,396.3,171.4,397.1z
		 M169.9,400.9c0-0.4-0.1-0.7-0.2-0.9s-0.4-0.3-0.6-0.3c-0.3,0-0.5,0.1-0.6,0.3s-0.2,0.5-0.2,0.9c0,0.4,0.1,0.7,0.2,0.9
		s0.4,0.3,0.6,0.3c0.3,0,0.5-0.1,0.6-0.3S169.9,401.3,169.9,400.9z M169.8,397.1c0-0.3-0.1-0.6-0.2-0.8c-0.1-0.2-0.3-0.3-0.5-0.3
		s-0.4,0.1-0.5,0.3c-0.1,0.2-0.2,0.5-0.2,0.8c0,0.4,0.1,0.6,0.2,0.8c0.1,0.2,0.3,0.3,0.5,0.3s0.4-0.1,0.5-0.3
		C169.7,397.8,169.8,397.5,169.8,397.1z"/>
	<path class="st3" d="M177.4,397.1c0,0.4-0.1,0.8-0.3,1.1s-0.5,0.6-0.8,0.8c0.4,0.2,0.7,0.5,0.9,0.8s0.3,0.8,0.3,1.2
		c0,0.8-0.2,1.4-0.7,1.8s-1.1,0.6-1.8,0.6s-1.3-0.2-1.8-0.6s-0.7-1-0.7-1.8c0-0.5,0.1-0.9,0.3-1.2s0.5-0.6,0.9-0.8
		c-0.3-0.2-0.6-0.4-0.8-0.8s-0.3-0.7-0.3-1.1c0-0.8,0.2-1.3,0.6-1.8s1-0.6,1.7-0.6s1.3,0.2,1.7,0.6S177.4,396.3,177.4,397.1z
		 M175.9,400.9c0-0.4-0.1-0.7-0.2-0.9s-0.4-0.3-0.6-0.3c-0.3,0-0.5,0.1-0.6,0.3s-0.2,0.5-0.2,0.9c0,0.4,0.1,0.7,0.2,0.9
		s0.4,0.3,0.6,0.3c0.3,0,0.5-0.1,0.6-0.3S175.9,401.3,175.9,400.9z M175.7,397.1c0-0.3-0.1-0.6-0.2-0.8c-0.1-0.2-0.3-0.3-0.5-0.3
		s-0.4,0.1-0.5,0.3c-0.1,0.2-0.2,0.5-0.2,0.8c0,0.4,0.1,0.6,0.2,0.8c0.1,0.2,0.3,0.3,0.5,0.3s0.4-0.1,0.5-0.3
		C175.7,397.8,175.7,397.5,175.7,397.1z"/>
</g>
</svg>
